<svg viewBox="0 0 400 400" xmlns="http://www.w3.org/2000/svg" aria-label="Activité physique">
  <rect width="400" height="400" fill="#F2F2F7" rx="32"/>
  <circle cx="200" cy="200" r="148" fill="#FFF4E6"/><ellipse cx="215" cy="322" rx="135" ry="24" fill="#E0D5C0"/><circle cx="210" cy="125" r="36" fill="#FFDBB5"/><ellipse cx="210" cy="108" rx="36" ry="15" fill="#5A3825"/><path d="M198 133 Q210 145 222 133" stroke="#555" stroke-width="2.5" fill="none" stroke-linecap="round"/><ellipse cx="210" cy="193" rx="32" ry="54" fill="#FF9500"/><path d="M225 244 Q248 288 232 322" stroke="#FF9500" stroke-width="15" fill="none" stroke-linecap="round"/><path d="M195 244 Q172 278 182 318" stroke="#FF9500" stroke-width="15" fill="none" stroke-linecap="round"/><path d="M242 188 Q278 168 290 194" stroke="#FF9500" stroke-width="13" fill="none" stroke-linecap="round"/><path d="M178 188 Q145 208 132 184" stroke="#FF9500" stroke-width="13" fill="none" stroke-linecap="round"/><path d="M95 228 L128 228" stroke="#FF9500" stroke-width="4" stroke-linecap="round" opacity=".5"/><path d="M85 248 L122 248" stroke="#FF9500" stroke-width="3" stroke-linecap="round" opacity=".4"/><path d="M90 268 L125 268" stroke="#FF9500" stroke-width="3" stroke-linecap="round" opacity=".3"/><circle cx="330" cy="85" r="28" fill="#FFD60A"/>
</svg>