<svg viewBox="0 0 400 400" xmlns="http://www.w3.org/2000/svg" aria-label="Mesure poids">
  <rect width="400" height="400" fill="#F2F2F7" rx="32"/>
  <circle cx="200" cy="200" r="148" fill="#F0FFF4"/><ellipse cx="200" cy="292" rx="104" ry="20" fill="#E0E0E0"/><rect x="184" y="252" width="32" height="46" rx="6" fill="#8E8E93"/><ellipse cx="200" cy="260" rx="92" ry="21" fill="#1C1C1E"/><ellipse cx="200" cy="254" rx="92" ry="21" fill="#333"/><rect x="170" y="222" width="60" height="36" rx="9" fill="#0A84FF"/><text x="200" y="245" font-size="16" font-weight="bold" fill="white" text-anchor="middle" font-family="system-ui">72 kg</text><circle cx="200" cy="128" r="36" fill="#FFDBB5"/><ellipse cx="200" cy="104" rx="36" ry="15" fill="#5A3825"/><ellipse cx="200" cy="196" rx="40" ry="55" fill="#34C759"/><path d="M177 244 L164 282" stroke="#34C759" stroke-width="16" fill="none" stroke-linecap="round"/><path d="M223 244 L236 282" stroke="#34C759" stroke-width="16" fill="none" stroke-linecap="round"/><ellipse cx="161" cy="287" rx="13" ry="8" fill="#FFDBB5"/><ellipse cx="239" cy="287" rx="13" ry="8" fill="#FFDBB5"/><path d="M188 136 Q200 148 212 136" stroke="#555" stroke-width="2.5" fill="none" stroke-linecap="round"/><path d="M160 188 Q128 168 122 188" stroke="#34C759" stroke-width="15" fill="none" stroke-linecap="round"/><path d="M240 188 Q272 168 278 188" stroke="#34C759" stroke-width="15" fill="none" stroke-linecap="round"/>
</svg>